<svg xmlns="http://www.w3.org/2000/svg" viewBox="0 0 834.46 834.48" fill="currentColor" role="img" aria-label="transistors mark">
  <path d="M417.22,834.48C187.17,834.48,0,647.31,0,417.24S187.17,0,417.22,0s417.24,187.17,417.24,417.24-187.17,417.24-417.24,417.24h0ZM417.22,53.78c-200.41,0-363.45,163.05-363.45,363.46s163.04,363.43,363.45,363.43,363.46-163.04,363.46-363.43S617.63,53.78,417.22,53.78Z"></path>
  <path d="M417.22,831.48C188.82,831.48,3,645.65,3,417.24S188.82,3,417.22,3s414.24,185.83,414.24,414.24-185.83,414.24-414.24,414.24h0ZM417.22,50.78c-202.06,0-366.45,164.39-366.45,366.46s164.39,366.43,366.45,366.43,366.46-164.38,366.46-366.43S619.29,50.78,417.22,50.78Z"></path>
  <path d="M257.13,704.53c-12.19,0-22.1-9.92-22.1-22.12v-244.34l-108.11.98c-12.21,0-22.2-9.83-22.3-21.92-.06-5.89,2.19-11.47,6.32-15.68,4.14-4.21,9.67-6.56,15.58-6.61l108.5-.98v-241.79c0-12.19,9.91-22.11,22.1-22.11s22.1,9.92,22.1,22.11v220.51l264.84-197.53h-28.17c-12.19,0-22.11-9.91-22.11-22.1s9.92-22.1,22.11-22.1h95.05l1.44.26c1.58.13,2.99.49,4.28.86,1.19.34,2.56.73,3.87,1.39,1.15.57,2.12,1.29,3.1,2.03.89.68,1.77,1.36,2.62,2.17l.32-.24,1.8,2.38c.57.75.88,1.48,1.07,1.97l.14.27c.73,1.4,1.37,2.61,1.86,4.1.52,1.55.75,3,.89,4.23.27,1.01.45,1.74.45,2.67v94.76c0,12.19-9.92,22.11-22.11,22.11s-22.11-9.92-22.11-22.11v-50.69l-295.61,220.5,326.13,245.74c9.73,7.34,11.69,21.24,4.36,30.98-4.16,5.52-10.76,8.81-17.67,8.81-4.8,0-9.39-1.54-13.28-4.44l-313.27-236.05v219.87c0,12.2-9.91,22.12-22.1,22.12h0Z"></path>
  <path d="M257.13,706.53c-13.29,0-24.1-10.82-24.1-24.12v-242.32l-106.09.96c-13.32,0-24.21-10.72-24.32-23.9-.06-6.43,2.39-12.5,6.9-17.1s10.55-7.16,16.99-7.21l106.52-.96v-239.81c0-13.29,10.81-24.11,24.1-24.11s24.1,10.81,24.1,24.11v216.53l256.82-191.55h-22.15c-13.29,0-24.11-10.81-24.11-24.1s10.81-24.1,24.11-24.1h94.78l.9.08,1.07.2c1.7.15,3.2.53,4.57.93,1.28.36,2.74.78,4.23,1.54,1.28.63,2.34,1.42,3.41,2.23,1.29.97,2.67,2.06,3.93,3.53l.3,1.04.89.13c.68.9,1.07,1.77,1.3,2.35l.09.17c.74,1.41,1.44,2.75,1.99,4.4.56,1.66.81,3.23.96,4.48.27,1.03.48,1.92.48,3.05v94.76c0,13.29-10.81,24.11-24.11,24.11s-24.11-10.81-24.11-24.11v-46.71l-290.28,216.52,324,244.13c10.62,8.01,12.75,23.16,4.75,33.78-4.53,6.02-11.73,9.61-19.27,9.61-5.24,0-10.24-1.67-14.48-4.84l-310.07-233.64v215.86c0,13.3-10.81,24.12-24.1,24.12v-.04Z"></path>
  <path d="M257.13,701.53c-10.53,0-19.1-8.57-19.1-19.12v-247.37l-111.14,1.01c-10.61,0-19.18-8.49-19.27-18.94-.05-5.1,1.9-9.92,5.47-13.56,3.58-3.64,8.36-5.67,13.47-5.71l111.48-1.01v-244.77c0-10.54,8.57-19.11,19.1-19.11s19.1,8.57,19.1,19.11v226.49l276.88-206.51h-37.21c-10.54,0-19.11-8.57-19.11-19.1s8.57-19.1,19.11-19.1h94.78l1.32.24c1.43.1,2.74.45,3.85.77,1.24.35,2.32.66,3.33,1.18.96.47,1.79,1.09,2.65,1.75,1.18.89,2.24,1.73,3.19,2.82l-.3,1.86,1.27-.95c.37.49.57,1,.73,1.4.79,1.52,1.43,2.68,1.89,4.07.47,1.4.66,2.73.78,3.84.26.98.41,1.5.41,2.12v94.76c0,10.54-8.57,19.11-19.11,19.11s-19.11-8.57-19.11-19.11v-56.67l-303.61,226.47,329.32,248.14c8.42,6.35,10.1,18.37,3.77,26.78-3.59,4.77-9.31,7.61-15.27,7.61-4.15,0-8.12-1.33-11.48-3.85l-318.06-239.67v225.89c0,10.55-8.57,19.12-19.1,19.12h-.03Z"></path>
</svg>